# xmcd
#
# Track frame offsets:
#	150
#	37243
#	69469
#	106970
#	133949
#	166226
#	200060
#	236305
#	261108
#	292490
#
# Disc length: 4199 seconds
#
# Revision: 1
# Processed by: cddbd v1.5PL3 Copyright (c) Steve Scherf et al.
# Submitted via: CDmax 2.0
#
DISCID=9e10650a
DTITLE=Eric Clapton - Live at Royal Albert Hall, 02.03.1989 - d1
DYEAR=1997
DGENRE=Blues
TTITLE0=Crossroads
TTITLE1=White Room
TTITLE2=I Shot The Sheriff
TTITLE3=Bell Bottom Blues
TTITLE4=Lay Down Sally
TTITLE5=Wonderful Tonight
TTITLE6=I Wanna Make Love to You
TTITLE7=After Midnight
TTITLE8=Can't Find My Way Home
TTITLE9=Forever Man
EXTD=Eric Clapton\nRoyal Albert Hall\nLondon, England\nFebruary 3, 1989\n"Bee
EXTD=tle Clasher" (Tarantura]\n\nLineage:  Original silvers => Unknown CDR ge
EXTD=nerations => CDR => EAC => FLAC\n\nGot this one in trade a few months ag
EXTD=o - a near-perfect soundboard from the RAH in \n1989.  I don't know any m
EXTD=ore about the lineage than what's above - sorry.  Both\nsound and perform
EXTD=ance are excellent.  I believe that the Beatle reference in the \ntitl
EXTD=e is due to the fact that George Harrison was in attendance (althoug
EXTD=h I don't\nthink he played) that night.\n\nTrack Listing:\n\nDisc 1:\n(1
EXTD=)  Crossroads (8:14]\n(2)  White Room (7:09]\n(3)  I Shot The Sheriff (8
EXTD=:20]\n(4)  Bell Bottom Blues (5:59]\n(5)  Lay Down Sally (7:10]\n(6)  Wo
EXTD=nderful Tonight (7:31]\n(7)  I Wanna Make Love to You (8:03]\n(8)  Afte
EXTD=r Midnight (5:30]\n(9)  Can't Find My Way Home (6:58]\n(10) Forever Ma
EXTD=n (4:59]\nTotal time:  74:08\n\nDisc 2:\n\n(1)  Same Old Blues (17:37]\n
EXTD=(2)  Tearing Us Apart (7:09]\n(3)  Cocaine (12:37]\n(4)  Layla (12:50]\n
EXTD=(5)  Solid Rock (5:02]\n(6)  Behind The Mask (4:28]\n(7)  Sunshine Of Yo
EXTD=ur Love (17:08]\n(8)  Closing (1:21]\n\nTotal time:  78:18\n\nArtwork ca
EXTD=n be found here:\n\nhttp://cao212.cao.msu.edu/artwork/images/Eric Clapto
EXTD=n Beetle-Clasher Royal Albert Hal 2003_02_1989/\n\nBand lineup:\nEric Cl
EXTD=apton (Guitar - Vocals) \nNathan East (Bass - Vocals]\nSteve Ferrone (Dr
EXTD=ums) \nMark Knopfler (Guitar - Vocals) \nGreg Phillinganes (Keyboard
EXTD=s - Vocals) \nAlan Clark (Keyboards) \nRay Cooper (Percussion) \nTessa N
EXTD=iles (Backing Vocals) \nKatie Kisson (Backing Vocals]\n\nTotal size (FLA
EXTD=C compressed): 951 mb\nTotal size (uncompressed): 1.46 Gb\n\nNote:  Th
EXTD=e Tarantura release spread this show across three discs -- no doubt to \
EXTD=nincrease the amount they could charge.  Discs 2 and 3 are compressed on
EXTD=to Disc 2\nof this set.\n\nEnjoy!
EXTT0=
EXTT1=
EXTT2=
EXTT3=
EXTT4=
EXTT5=
EXTT6=
EXTT7=
EXTT8=
EXTT9=
PLAYORDER=
